<svg width="120" height="50" viewBox="0 0 120 50" fill="none" xmlns="http://www.w3.org/2000/svg">
<circle cx="25" cy="25" r="25" fill="white"/>
<circle cx="60" cy="25" r="25" fill="white"/>
<circle cx="95" cy="25" r="25" fill="white"/>
<path d="M22.1953 25.9141H25.5352C26.3164 25.9141 27.0352 25.7852 27.6914 25.5273C28.6367 25.1523 29.1094 24.6953 29.1094 24.1562V20.1719C29.1094 19.625 28.6367 19.168 27.6914 18.8008C27.0352 18.543 26.3164 18.4141 25.5352 18.4141H22.1953V25.9141ZM19.8516 34.4688V16.8906L21.0938 16.3047H25.5352C26.7148 16.3047 27.8008 16.5117 28.793 16.9258C30.5664 17.6602 31.4531 18.7422 31.4531 20.1719V24.1562C31.4531 25.5938 30.5664 26.6758 28.793 27.4023C28.4492 27.543 28.0938 27.6602 27.7266 27.7539L31.7344 33.4961L29.6719 34.4688H29.5547L25.043 28.0234H22.1953V33.4141L19.9688 34.4688H19.8516Z" fill="#A52422"/>
<path d="M59.3281 34.4688V16.8906L61.5547 15.8359H61.6719V33.4141L59.4453 34.4688H59.3281Z" fill="#A52422"/>
<path d="M89.4414 34V33.8828L90.3906 31.8672L96.0039 26.4297C98.0352 24.4531 99.0508 23.082 99.0508 22.3164V19.9375C99.0508 19.3984 98.5781 18.9414 97.6328 18.5664C96.9766 18.3086 96.2578 18.1797 95.4766 18.1797C94.6953 18.1797 93.9766 18.3086 93.3203 18.5664C92.375 18.9414 91.9023 19.3984 91.9023 19.9375V21.6953L89.6758 22.75H89.5586V19.9375C89.5586 18.5078 90.4453 17.4258 92.2188 16.6914C93.2109 16.2773 94.2969 16.0703 95.4766 16.0703C96.6562 16.0703 97.7422 16.2773 98.7344 16.6914C100.508 17.4258 101.395 18.5078 101.395 19.9375V22.4336C101.395 23.8555 100.336 25.5078 98.2188 27.3906L93.2148 31.8672H101.43V31.9844L100.48 34H89.4414Z" fill="#A52422"/>
</svg>