<svg width="164" height="164" viewBox="0 0 164 164" fill="none" xmlns="http://www.w3.org/2000/svg">
<path d="M82 67.6205C74.0518 67.6205 67.5859 74.0223 67.5859 81.9705C67.5859 89.9188 74.0518 96.3846 82 96.3846C89.9482 96.3846 96.4141 89.9188 96.4141 81.9705C96.4141 74.0223 89.9482 67.6205 82 67.6205ZM82 88.7647L75.2059 81.9705L82 75.1764L88.7941 81.9705L82 88.7647Z" fill="#E4EFE7"/>
<path d="M139.558 58.0112C126.308 58.0112 113.425 62.2563 102.597 69.8028C103.938 72.0633 104.996 74.5101 105.537 77.1659H120.437V86.8393H105.537C104.996 89.495 103.938 91.8778 102.597 94.1383C113.425 101.685 126.308 105.994 139.558 105.994H153.682C152.889 100.628 150.816 95.5278 147.595 91.1296C153.929 88.5866 157.594 86.0433 157.791 85.9027L164 81.9705L157.791 78.0387C157.594 77.8981 153.929 75.3548 147.595 72.8119C150.816 68.4136 152.889 63.3774 153.683 58.0115H139.558V58.0112Z" fill="#E4EFE7"/>
<path d="M115.633 24.4129C115.633 34.9467 113.367 45.3444 109.097 54.874C118.626 50.6043 129.024 48.338 139.558 48.338H145.5C138.742 35.6377 128.333 25.2288 115.633 18.4708V24.4129Z" fill="#E4EFE7"/>
<path d="M58.4628 77.1659C59.0041 74.5101 60.0621 72.0633 61.4029 69.8028C50.5748 62.2563 37.6915 58.0112 24.4424 58.0112H10.3173C11.1107 63.377 13.1841 68.4133 16.4048 72.8115C10.0706 75.3545 6.40593 77.8978 6.20894 78.0384L0 81.9705L6.20894 85.9024C6.40593 86.043 10.0706 88.5863 16.4048 91.1292C13.1844 95.5275 11.111 100.628 10.3173 105.994H24.4421C37.6915 105.994 50.5745 101.685 61.4026 94.1379C60.0618 91.8775 59.0038 89.4947 58.4625 86.839H43.5625V77.1655H58.4628V77.1659Z" fill="#E4EFE7"/>
<path d="M57.9766 24.4129C57.9766 37.6623 62.2857 50.5453 69.8323 61.3735C72.0927 60.0326 74.5396 58.9747 77.1953 58.4333V43.533H86.8047V58.4333C89.4604 58.9747 91.9073 60.0326 94.1677 61.3735C101.714 50.5453 106.023 37.662 106.023 24.4129V10.2881C100.659 11.0815 95.5607 13.1549 91.159 16.3757C88.6205 10.0415 86.0728 6.37678 85.9322 6.17498L82 0L78.0682 6.17947C77.9275 6.37646 75.3843 10.0412 72.8413 16.3753C68.4428 13.1549 63.3424 11.0815 57.9766 10.2881V24.4129Z" fill="#E4EFE7"/>
<path d="M106.023 139.528C106.023 126.279 101.714 113.396 94.1677 102.568C91.9073 103.909 89.4604 104.967 86.8047 105.508V120.472H77.1953V105.508C74.5396 104.966 72.0927 103.908 69.8323 102.568C62.2857 113.396 57.9766 126.279 57.9766 139.528V153.653C63.3415 152.86 68.4393 150.786 72.841 147.566C75.3795 153.9 77.9272 158.205 78.0678 158.407L82 164L85.9318 158.402C86.0725 158.205 88.6157 153.9 91.1587 147.566C95.5569 150.786 100.657 152.86 106.023 153.653V139.528H106.023Z" fill="#E4EFE7"/>
<path d="M54.9032 54.8737C50.6334 45.3444 48.3672 34.9467 48.3672 24.4129V18.4711C35.6668 25.2288 25.2582 35.6376 18.5003 48.338H24.4421C34.9759 48.3377 45.3735 50.6039 54.9032 54.8737Z" fill="#E4EFE7"/>
<path d="M109.097 109.067C113.367 118.597 115.633 128.995 115.633 139.528V145.47C128.333 138.713 138.742 128.368 145.5 115.667H139.558C129.024 115.667 118.626 113.337 109.097 109.067Z" fill="#E4EFE7"/>
<path d="M48.3672 139.528C48.3672 128.995 50.6334 118.597 54.9032 109.067C45.3735 113.337 34.9759 115.667 24.4421 115.667H18.5003C25.2579 128.368 35.6668 138.712 48.3672 145.47V139.528Z" fill="#E4EFE7"/>
</svg>